<svg xmlns="http://www.w3.org/2000/svg" viewBox="0 0 485 679.57"><title>Ativo 5</title><path d="M162.19,185.47l-47-32.46V4.76l47,32.46Zm129.4,64.86-23.52-16.23v74.13l23.52,16.23Z" style="fill:none;stroke:#b51917;stroke-width:5px"/><path d="M196.42,179.37,217.27,75.12h95.23L291.66,179.37ZM29.73,83.69,1,66.71v77.52l28.73,17Zm326.6,237.72,10.42-52.12H319.14l-10.43,52.13Zm-131-47.84L211,265.08v38.76l14.37,8.49Z" style="fill:none;stroke:#b51917;stroke-width:2px"/><path d="M84.36,168.39l-28.73-17V73.9l28.73,17Zm375.05-1.81L485,54H368.1L342.5,166.58ZM252.68,277.16l-14.37-8.49v38.76l14.37,8.49ZM440.2,315,453,258.72H394.55L381.75,315Z" style="fill:#b51917"/><path d="M196.42,530.67l20.85-104.25h95.23L291.66,530.67Z" style="fill:none;stroke:#577935;stroke-width:2px"/><path d="M84.36,519.69l-28.73-17V425.2l28.73,17Z" style="fill:#577935"/><path d="M162.19,536.78l-47-32.46V356.07l47,32.46Z" style="fill:none;stroke:#577935;stroke-width:4px"/><path d="M29.73,512.51,1,495.54V418l28.73,17Z" style="fill:none;stroke:#577935;stroke-width:2px"/><path d="M342.5,517.89,368.1,405.3H485L459.41,517.89Z" style="fill:#577935"/><path d="M308.71,672.71l10.43-52.12h47.62l-10.42,52.13Z" style="fill:none;stroke:#577935;stroke-width:2px"/><path d="M291.6,675.76l-23.52-16.23V585.41l23.52,16.23Z" style="fill:none;stroke:#577935;stroke-width:4px"/><path d="M225.37,663.63,211,655.15V616.39l14.37,8.49Z" style="fill:none;stroke:#577935;stroke-width:2px"/><path d="M252.68,667.22l-14.37-8.49V620l14.37,8.49Zm187.53-.9L453,610H394.55l-12.8,56.29Z" style="fill:#577935"/></svg>