<svg xmlns="http://www.w3.org/2000/svg" viewBox="0 0 856.71 415.03">
<title>Ativo 7</title>
<path d="M46.58,37.28H0L21.6,1.5H68.19Z" fill="#b51917"/>
<path d="M111.8,40.4H71.29L92.9,1.5H133.4Z" fill="none" stroke="#b51917" stroke-miterlimit="10"/>
<path d="M177,40.4H136.51l21.6-38.9h40.51Z" fill="none" stroke="#b51917" stroke-miterlimit="10" stroke-width="3"/>
<path d="M46.58,139.28H0L21.6,103.5H68.19Z" fill="#577935"/>
<path d="M111.8,142.4H71.29l21.6-38.9H133.4Z" fill="none" stroke="#577935" stroke-miterlimit="10"/>
<path d="M177,142.4H136.51l21.6-38.9h40.51Z" fill="none" stroke="#577935" stroke-miterlimit="10" stroke-width="3"/>
<path d="M46.58,88.28H0L21.6,52.5H68.19Z" fill="#b51917"/>
<path d="M111.8,91.4H71.29L92.9,52.5H133.4Z" fill="none" stroke="#b51917" stroke-miterlimit="10"/>
<path d="M177,91.4H136.51l21.6-38.9h40.51Z" fill="none" stroke="#b51917" stroke-miterlimit="10" stroke-width="3"/>
<path d="M46.58,190.28H0L21.6,154.5H68.19Z" fill="#577935"/>
<path d="M111.8,193.4H71.29l21.6-38.9H133.4Z" fill="none" stroke="#577935" stroke-miterlimit="10"/>
<path d="M177,193.4H136.51l21.6-38.9h40.51Z" fill="none" stroke="#577935" stroke-miterlimit="10" stroke-width="3"/>
<path d="M46.58,257.41H0l21.6-35.78H68.19Z" fill="#b51917"/>
<path d="M111.8,260.53H71.29l21.6-38.9H133.4Z" fill="none" stroke="#b51917" stroke-miterlimit="10"/>
<path d="M177,260.53H136.51l21.6-38.9h40.51Z" fill="none" stroke="#b51917" stroke-miterlimit="10" stroke-width="3"/>
<path d="M46.58,359.41H0l21.6-35.78H68.19Z" fill="#577935"/>
<path d="M111.8,362.53H71.29l21.6-38.9H133.4Z" fill="none" stroke="#577935" stroke-miterlimit="10"/>
<path d="M177,362.53H136.51l21.6-38.9h40.51Z" fill="none" stroke="#577935" stroke-miterlimit="10" stroke-width="3"/>
<path d="M46.58,308.41H0l21.6-35.78H68.19Z" fill="#b51917"/>
<path d="M111.8,311.53H71.29l21.6-38.9H133.4Z" fill="none" stroke="#b51917" stroke-miterlimit="10"/>
<path d="M177,311.53H136.51l21.6-38.9h40.51Z" fill="none" stroke="#b51917" stroke-miterlimit="10" stroke-width="3"/>
<path d="M46.58,410.41H0l21.6-35.78H68.19Z" fill="#577935"/>
<path d="M111.8,413.53H71.29l21.6-38.9H133.4Z" fill="none" stroke="#577935" stroke-miterlimit="10"/>
<path d="M177,413.53H136.51l21.6-38.9h40.51Z" fill="none" stroke="#577935" stroke-miterlimit="10" stroke-width="3"/>
<path d="M267.07,37.28H220.49L242.09,1.5h46.58Z" fill="#b51917"/>
<path d="M332.29,40.4H291.78l21.6-38.9h40.51Z" fill="none" stroke="#b51917" stroke-miterlimit="10"/>
<path d="M397.5,40.4H357L378.6,1.5h40.51Z" fill="none" stroke="#b51917" stroke-miterlimit="10" stroke-width="3"/>
<path d="M267.07,139.28H220.49l21.6-35.78h46.58Z" fill="#577935"/>
<path d="M332.29,142.4H291.78l21.6-38.9h40.51Z" fill="none" stroke="#577935" stroke-miterlimit="10"/>
<path d="M397.5,142.4H357l21.6-38.9h40.51Z" fill="none" stroke="#577935" stroke-miterlimit="10" stroke-width="3"/>
<path d="M267.07,88.28H220.49l21.6-35.78h46.58Z" fill="#b51917"/>
<path d="M332.29,91.4H291.78l21.6-38.9h40.51Z" fill="none" stroke="#b51917" stroke-miterlimit="10"/>
<path d="M397.5,91.4H357l21.6-38.9h40.51Z" fill="none" stroke="#b51917" stroke-miterlimit="10" stroke-width="3"/>
<path d="M267.07,190.28H220.49l21.6-35.78h46.58Z" fill="#577935"/>
<path d="M332.29,193.4H291.78l21.6-38.9h40.51Z" fill="none" stroke="#577935" stroke-miterlimit="10"/>
<path d="M397.5,193.4H357l21.6-38.9h40.51Z" fill="none" stroke="#577935" stroke-miterlimit="10" stroke-width="3"/>
<path d="M267.07,257.41H220.49l21.6-35.78h46.58Z" fill="#b51917"/>
<path d="M332.29,260.53H291.78l21.6-38.9h40.51Z" fill="none" stroke="#b51917" stroke-miterlimit="10"/>
<path d="M397.5,260.53H357l21.6-38.9h40.51Z" fill="none" stroke="#b51917" stroke-miterlimit="10" stroke-width="3"/>
<path d="M267.07,359.41H220.49l21.6-35.78h46.58Z" fill="#577935"/>
<path d="M332.29,362.53H291.78l21.6-38.9h40.51Z" fill="none" stroke="#577935" stroke-miterlimit="10"/>
<path d="M397.5,362.53H357l21.6-38.9h40.51Z" fill="none" stroke="#577935" stroke-miterlimit="10" stroke-width="3"/>
<path d="M267.07,308.41H220.49l21.6-35.78h46.58Z" fill="#b51917"/>
<path d="M332.29,311.53H291.78l21.6-38.9h40.51Z" fill="none" stroke="#b51917" stroke-miterlimit="10"/>
<path d="M397.5,311.53H357l21.6-38.9h40.51Z" fill="none" stroke="#b51917" stroke-miterlimit="10" stroke-width="3"/>
<path d="M267.07,410.41H220.49l21.6-35.78h46.58Z" fill="#577935"/>
<path d="M332.29,413.53H291.78l21.6-38.9h40.51Z" fill="none" stroke="#577935" stroke-miterlimit="10"/>
<path d="M397.5,413.53H357l21.6-38.9h40.51Z" fill="none" stroke="#577935" stroke-miterlimit="10" stroke-width="3"/>
<path d="M481.56,37.28H435L456.58,1.5h46.58Z" fill="#b51917"/>
<path d="M546.78,40.4H506.27l21.6-38.9h40.51Z" fill="none" stroke="#b51917" stroke-miterlimit="10"/>
<path d="M612,40.4H571.49l21.6-38.9H633.6Z" fill="none" stroke="#b51917" stroke-miterlimit="10" stroke-width="3"/>
<path d="M481.56,139.28H435l21.6-35.78h46.58Z" fill="#577935"/>
<path d="M546.78,142.4H506.27l21.6-38.9h40.51Z" fill="none" stroke="#577935" stroke-miterlimit="10"/>
<path d="M612,142.4H571.49l21.6-38.9H633.6Z" fill="none" stroke="#577935" stroke-miterlimit="10" stroke-width="3"/>
<path d="M481.56,88.28H435l21.6-35.78h46.58Z" fill="#b51917"/>
<path d="M546.78,91.4H506.27l21.6-38.9h40.51Z" fill="none" stroke="#b51917" stroke-miterlimit="10"/>
<path d="M612,91.4H571.49l21.6-38.9H633.6Z" fill="none" stroke="#b51917" stroke-miterlimit="10" stroke-width="3"/>
<path d="M481.56,190.28H435l21.6-35.78h46.58Z" fill="#577935"/>
<path d="M546.78,193.4H506.27l21.6-38.9h40.51Z" fill="none" stroke="#577935" stroke-miterlimit="10"/>
<path d="M612,193.4H571.49l21.6-38.9H633.6Z" fill="none" stroke="#577935" stroke-miterlimit="10" stroke-width="3"/>
<path d="M481.56,257.41H435l21.6-35.78h46.58Z" fill="#b51917"/>
<path d="M546.78,260.53H506.27l21.6-38.9h40.51Z" fill="none" stroke="#b51917" stroke-miterlimit="10"/>
<path d="M612,260.53H571.49l21.6-38.9H633.6Z" fill="none" stroke="#b51917" stroke-miterlimit="10" stroke-width="3"/>
<path d="M481.56,359.41H435l21.6-35.78h46.58Z" fill="#577935"/>
<path d="M546.78,362.53H506.27l21.6-38.9h40.51Z" fill="none" stroke="#577935" stroke-miterlimit="10"/>
<path d="M612,362.53H571.49l21.6-38.9H633.6Z" fill="none" stroke="#577935" stroke-miterlimit="10" stroke-width="3"/>
<path d="M481.56,308.41H435l21.6-35.78h46.58Z" fill="#b51917"/>
<path d="M546.78,311.53H506.27l21.6-38.9h40.51Z" fill="none" stroke="#b51917" stroke-miterlimit="10"/>
<path d="M612,311.53H571.49l21.6-38.9H633.6Z" fill="none" stroke="#b51917" stroke-miterlimit="10" stroke-width="3"/>
<path d="M481.56,410.41H435l21.6-35.78h46.58Z" fill="#577935"/>
<path d="M546.78,413.53H506.27l21.6-38.9h40.51Z" fill="none" stroke="#577935" stroke-miterlimit="10"/>
<path d="M612,413.53H571.49l21.6-38.9H633.6Z" fill="none" stroke="#577935" stroke-miterlimit="10" stroke-width="3"/>
<path d="M702.13,37.28H655.54L677.15,1.5h46.58Z" fill="#b51917"/>
<path d="M767.34,40.4H726.84l21.6-38.9h40.51Z" fill="none" stroke="#b51917" stroke-miterlimit="10"/>
<path d="M832.56,40.4H792.05l21.6-38.9h40.51Z" fill="none" stroke="#b51917" stroke-miterlimit="10" stroke-width="3"/>
<path d="M702.13,139.28H655.54l21.6-35.78h46.58Z" fill="#577935"/>
<path d="M767.34,142.4H726.84l21.6-38.9h40.51Z" fill="none" stroke="#577935" stroke-miterlimit="10"/>
<path d="M832.56,142.4H792.05l21.6-38.9h40.51Z" fill="none" stroke="#577935" stroke-miterlimit="10" stroke-width="3"/>
<path d="M702.13,88.28H655.54l21.6-35.78h46.58Z" fill="#b51917"/>
<path d="M767.34,91.4H726.84l21.6-38.9h40.51Z" fill="none" stroke="#b51917" stroke-miterlimit="10"/>
<path d="M832.56,91.4H792.05l21.6-38.9h40.51Z" fill="none" stroke="#b51917" stroke-miterlimit="10" stroke-width="3"/>
<path d="M702.13,190.28H655.54l21.6-35.78h46.58Z" fill="#577935"/>
<path d="M767.34,193.4H726.84l21.6-38.9h40.51Z" fill="none" stroke="#577935" stroke-miterlimit="10"/>
<path d="M832.56,193.4H792.05l21.6-38.9h40.51Z" fill="none" stroke="#577935" stroke-miterlimit="10" stroke-width="3"/>
<path d="M702.13,257.41H655.54l21.6-35.78h46.58Z" fill="#b51917"/>
<path d="M767.34,260.53H726.84l21.6-38.9h40.51Z" fill="none" stroke="#b51917" stroke-miterlimit="10"/>
<path d="M832.56,260.53H792.05l21.6-38.9h40.51Z" fill="none" stroke="#b51917" stroke-miterlimit="10" stroke-width="3"/>
<path d="M702.13,359.41H655.54l21.6-35.78h46.58Z" fill="#577935"/>
<path d="M767.34,362.53H726.84l21.6-38.9h40.51Z" fill="none" stroke="#577935" stroke-miterlimit="10"/>
<path d="M832.56,362.53H792.05l21.6-38.9h40.51Z" fill="none" stroke="#577935" stroke-miterlimit="10" stroke-width="3"/>
<path d="M702.13,308.41H655.54l21.6-35.78h46.58Z" fill="#b51917"/>
<path d="M767.34,311.53H726.84l21.6-38.9h40.51Z" fill="none" stroke="#b51917" stroke-miterlimit="10"/>
<path d="M832.56,311.53H792.05l21.6-38.9h40.51Z" fill="none" stroke="#b51917" stroke-miterlimit="10" stroke-width="3"/>
<path d="M702.13,410.41H655.54l21.6-35.78h46.58Z" fill="#577935"/>
<path d="M767.34,413.53H726.84l21.6-38.9h40.51Z" fill="none" stroke="#577935" stroke-miterlimit="10"/>
<path d="M832.56,413.53H792.05l21.6-38.9h40.51Z" fill="none" stroke="#577935" stroke-miterlimit="10" stroke-width="3"/>
</svg>