<svg xmlns="http://www.w3.org/2000/svg" viewBox="0 0 333.07 135.06">
<defs>
    <style>.a{fill:#c1b0a1;}.b{fill:#6e1d1d;}.c{fill:#28285b;}.d{fill:#cf8f7c;}.e{fill:#033121;}.f{fill:#dd9945;}.g{fill:#88493d;}</style>
</defs>
<title>Ativo 2</title>
<rect class="a" x="113.5" y="106.19" width="19.64" height="28.87"/>
<rect class="b" x="113.5" y="77.33" width="19.64" height="28.87"/>
<rect class="c" x="30.34" y="58.08" width="19.64" height="38.49"/>
<rect class="d" x="30.34" y="96.57" width="19.64" height="38.49"/>
<rect class="d" x="30.34" y="19.6" width="19.64" height="38.49"/>
<rect class="e" x="58.49" y="116.82" width="19.64" height="18.24"/>
<rect class="f" x="58.49" y="58.08" width="19.64" height="58.74"/>
<rect class="c" x="85.32" y="72.82" width="19.64" height="62.24"/>
<rect class="f" x="85.32" y="100.34" width="19.64" height="7.2"/>
<rect class="e" width="19.64" height="58.08"/>
<rect class="g" y="58.08" width="19.64" height="76.98"/>
<rect class="g" x="143.12" y="96.57" width="19.64" height="38.49"/>
<rect class="b" x="169.66" y="116.82" width="19.64" height="18.24"/>
<rect class="c" x="196.66" y="116.82" width="19.64" height="18.24"/>
<rect class="f" x="226.16" y="116.82" width="19.64" height="18.24"/>
<rect class="d" x="255.66" y="116.82" width="19.64" height="18.24"/>
<rect class="e" x="285.43" y="116.82" width="19.64" height="18.24"/>
<rect class="a" x="313.43" y="116.82" width="19.64" height="18.24"/>
</svg>